<svg width="30" height="30" viewBox="0 0 30 30" fill="none" xmlns="http://www.w3.org/2000/svg">
<path d="M15.5912 0.000734136C16.0586 0.0785526 16.5296 0.146093 16.9935 0.236392C20.1803 0.858939 22.9022 3.39465 23.331 6.10728C23.6135 7.8927 23.3019 9.58048 22.0924 11.0906C20.4858 13.0963 18.2638 14.2643 15.3236 14.4294C11.4634 14.6468 8.28895 12.7534 6.84787 10.1832C5.49394 7.76936 6.0415 4.55385 8.16395 2.55333C9.46682 1.32512 11.0355 0.479391 12.9784 0.14903C13.3085 0.0932353 13.6422 0.0491871 13.9749 0C14.5137 0.000734136 15.0524 0.000734136 15.5912 0.000734136Z" fill="white"/>
<path d="M0.0789505 25.7078C-0.174581 23.2264 0.170504 20.7927 1.28851 18.4706C1.95491 17.0875 2.95143 15.896 4.58882 15.1648C5.61264 14.7075 6.70951 14.5092 7.86009 14.4924C8.25975 14.4865 8.611 14.6296 8.94112 14.8022C9.46667 15.076 9.98254 15.3638 10.5107 15.6347C13.5117 17.1712 16.5127 17.1676 19.5085 15.6222C19.9266 15.4064 20.3518 15.1979 20.7444 14.9534C21.4637 14.5063 22.2524 14.4417 23.1098 14.546C25.4427 14.8315 27.0942 15.8938 28.2069 17.5941C29.2008 19.1115 29.6233 20.7626 29.8575 22.4585C29.9772 23.3233 30.0151 24.1903 29.9948 25.0603C29.9323 27.734 27.7976 29.6677 24.6073 29.9525C24.2217 29.987 23.837 30.001 23.4514 30.001C20.63 30.0017 17.8086 30.0017 14.9872 30.0017C12.142 30.0017 9.29765 30.001 6.45246 30.0017C4.99289 30.0025 3.61607 29.7624 2.40563 29.0415C1.03146 28.2222 0.220682 27.0975 0.0789505 25.7078Z" fill="white"/>
</svg>
