<svg width="30" height="30" viewBox="0 0 30 30" fill="none" xmlns="http://www.w3.org/2000/svg">
<g clip-path="url(#clip0_0_229)">
<path d="M30 15.1749C29.824 15.7464 29.5599 16.2445 29.0205 16.5071C28.387 16.8152 27.7876 16.7443 27.2307 16.3008C27.1062 16.2013 26.9955 16.0799 26.8854 15.9616C23.2178 12.0222 19.5508 8.08192 15.8847 4.14166C15.2511 3.46089 14.7443 3.46253 14.1062 4.14736C10.4181 8.10964 6.73066 12.0719 3.0425 16.0334C2.37634 16.7492 1.61306 16.8902 0.865716 16.4459C-0.0106121 15.925 -0.27389 14.6458 0.322468 13.7808C0.426414 13.6299 0.54781 13.4905 0.671482 13.3576C4.3513 9.40187 8.0554 5.47139 11.7033 1.4822C13.4848 -0.465512 16.522 -0.525027 18.2997 1.49688C19.3232 2.66192 20.4037 3.76907 21.5068 4.95531C21.5068 4.30145 21.5061 3.71119 21.5068 3.12011C21.5084 2.54941 21.6669 2.0423 22.0713 1.65667C22.6199 1.13408 23.2565 1.02157 23.9211 1.33219C24.629 1.66319 24.9492 2.29993 24.9515 3.11521C24.9575 4.86807 24.956 6.62012 24.9492 8.37298C24.9484 8.57762 25.003 8.72029 25.1381 8.8646C26.4689 10.284 27.7883 11.7156 29.1214 13.1326C29.5068 13.5427 29.8634 13.9626 30 14.5463C30 14.755 30 14.9646 30 15.1749Z" fill="black"/>
<path d="M4.15404 22.8337C4.15404 21.5431 4.15935 20.2525 4.15101 18.9619C4.14873 18.6129 4.25799 18.3382 4.48636 18.0936C7.76178 14.5797 11.0342 11.0618 14.3088 7.54628C14.7716 7.04896 15.2223 7.04651 15.6814 7.53895C18.956 11.0545 22.2276 14.5724 25.5038 18.0863C25.7398 18.339 25.8475 18.6219 25.846 18.9831C25.8384 21.5121 25.8452 24.0411 25.8414 26.5693C25.8384 28.5138 24.5311 29.9601 22.7261 29.987C21.1639 30.0098 19.6017 29.987 18.0387 29.9984C17.8164 30 17.7944 29.912 17.7944 29.7098C17.8005 27.1702 17.7952 24.6314 17.8035 22.0918C17.8043 21.8423 17.7625 21.751 17.5076 21.7526C15.8278 21.7648 14.1487 21.7632 12.4689 21.7534C12.2512 21.7518 12.1912 21.8089 12.192 22.0486C12.2003 24.5776 12.1935 27.1066 12.2026 29.6348C12.2034 29.9038 12.1624 30.0033 11.8801 30C10.2792 29.9796 8.6768 30.0139 7.07589 29.9731C5.4985 29.9332 4.18211 28.4648 4.16087 26.7682C4.14418 25.4573 4.15783 24.1446 4.15783 22.8337C4.15556 22.8337 4.1548 22.8337 4.15404 22.8337Z" fill="black"/>
</g>
<defs>
<clipPath id="clip0_0_229">
<rect width="30" height="30" fill="white"/>
</clipPath>
</defs>
</svg>
