<svg width="30" height="30" viewBox="0 0 30 30" fill="none" xmlns="http://www.w3.org/2000/svg">
<path d="M13.8456 6.94388C13.8456 8.04901 13.8485 9.15413 13.8446 10.2593C13.8379 12.3606 12.3586 13.8406 10.2559 13.8434C8.0327 13.8473 5.81047 13.8473 3.58727 13.8434C1.49032 13.8396 0.00626388 12.3529 0.00240918 10.2544C-0.000481836 8.03263 -0.00144551 5.80985 0.00337286 3.58708C0.00722755 1.49052 1.49418 0.00674444 3.59209 0.00289047C5.81529 -0.000963491 8.03752 -0.000963491 10.2607 0.00289047C12.3606 0.00674444 13.8398 1.48956 13.8456 3.59093C13.8485 4.70858 13.8456 5.82623 13.8456 6.94388Z" fill="white"/>
<path d="M16.158 6.92437C16.158 5.80672 16.1551 4.69003 16.1589 3.57239C16.1666 1.49702 17.6536 0.00746706 19.7274 0.00361309C21.9622 -0.00120436 24.1969 -0.00120436 26.4317 0.00361309C28.5094 0.00843055 29.9953 1.49413 30.0002 3.57142C30.005 5.80576 30.0059 8.04009 30.0002 10.2754C29.9953 12.3536 28.5094 13.8393 26.4326 13.8442C24.1979 13.849 21.9631 13.849 19.7284 13.8442C17.6526 13.8393 16.1657 12.3508 16.158 10.2764C16.1541 9.15967 16.158 8.04202 16.158 6.92437Z" fill="white"/>
<path d="M6.96037 16.1573C8.0657 16.1573 9.17104 16.1544 10.2764 16.1583C12.3531 16.166 13.84 17.6497 13.8449 19.727C13.8497 21.9614 13.8506 24.1957 13.8449 26.431C13.8391 28.5092 12.3541 29.995 10.2764 29.9998C8.04161 30.0046 5.80685 30.0046 3.5721 29.9998C1.49731 29.995 0.00746847 28.5054 0.00361377 26.431C-0.00120459 24.1967 -0.00120459 21.9623 0.00361377 19.727C0.00843214 17.6517 1.49731 16.165 3.57306 16.1583C4.70152 16.1544 5.83095 16.1573 6.96037 16.1573Z" fill="white"/>
<path d="M19.4887 21.9251C20.197 21.9251 20.9062 21.9135 21.6145 21.9318C21.8728 21.9386 21.9316 21.8567 21.9297 21.609C21.9181 20.1802 21.9191 18.7504 21.9268 17.3215C21.9306 16.7087 22.3672 16.2289 22.9492 16.1634C23.5168 16.0998 24.0497 16.4669 24.1914 17.0344C24.229 17.1828 24.229 17.3437 24.23 17.4988C24.2328 18.8438 24.2406 20.1889 24.2242 21.5339C24.2203 21.8364 24.2762 21.9405 24.6096 21.9347C25.9781 21.9125 27.3484 21.9241 28.7168 21.926C29.4772 21.927 30.0024 22.4058 29.9975 23.0861C29.9937 23.7653 29.4694 24.2307 28.7024 24.2317C27.3214 24.2336 25.9395 24.2403 24.5586 24.2249C24.283 24.222 24.2222 24.301 24.2242 24.566C24.2377 25.9467 24.2319 27.3283 24.23 28.709C24.229 29.474 23.7578 29.9972 23.0774 29.9982C22.398 29.9991 21.9248 29.4731 21.9239 28.7109C21.922 27.3303 21.9162 25.9486 21.9297 24.5679C21.9326 24.3059 21.8757 24.222 21.5972 24.2249C20.276 24.2413 18.9548 24.2317 17.6336 24.2317C16.6969 24.2317 16.1611 23.8164 16.1563 23.087C16.1505 22.3403 16.6854 21.9251 17.65 21.9251C18.2638 21.9251 18.8767 21.9251 19.4887 21.9251Z" fill="white"/>
</svg>
