<svg width="30" height="30" viewBox="0 0 30 30" fill="none" xmlns="http://www.w3.org/2000/svg">
<path d="M3.24214 29.9983C2.85384 29.8353 2.46727 29.673 2.26441 29.3117C2.08593 28.9938 2.0215 28.6579 2.18431 28.3363C2.29314 28.1216 2.19824 28.0611 2.00844 27.9743C1.49738 27.7387 0.994145 27.4881 0.489173 27.242C-0.0366944 26.9854 -0.128982 26.7192 0.166165 26.2711C1.74377 23.8746 3.32311 21.4788 4.9042 19.0837C5.19325 18.6461 5.50407 18.5713 6.01252 18.8152C6.75344 19.1705 7.49436 19.5265 8.22831 19.8923C8.39895 19.9776 8.47992 19.9746 8.58353 19.813C9.11549 18.9805 9.66051 18.154 10.2064 17.3282C10.2743 17.2257 10.29 17.1517 10.1977 17.0469C9.81984 16.6221 9.8268 16.1621 10.0593 15.6871C10.9203 13.9219 12.1096 12.3256 13.4609 10.8125C14.2044 9.97996 15.0097 9.19308 15.849 8.43238C17.5407 6.89975 19.6799 6.83468 21.5639 8.25436C22.7332 9.13548 23.9033 10.0166 25.2328 10.7205C26.2776 11.274 27.3798 11.6981 28.6144 11.8335C29.3126 11.9105 29.8019 12.2411 29.9578 12.8425C30.0962 13.3758 29.8925 13.8306 29.3727 14.162C29.0732 14.3527 28.7284 14.435 28.3602 14.4006C26.2854 14.2046 24.3265 13.7334 22.6522 12.5987C22.6366 12.5882 22.6122 12.5859 22.5521 12.5672C22.5921 13.0041 22.6261 13.4267 22.6696 13.8486C22.7698 14.8254 22.8751 15.8015 22.9761 16.7784C23.0353 17.3506 22.9186 17.8914 22.5199 18.3634C22.3989 18.507 22.4293 18.6072 22.5242 18.7411C24.5328 21.582 26.2288 24.5612 27.8038 27.5928C28.2165 28.3879 28.0049 29.1703 27.2649 29.664C27.0115 29.833 26.7068 29.8966 26.4204 29.9976C26.1966 29.9976 25.9729 29.9976 25.7482 29.9976C24.9455 29.9116 24.5006 29.4658 24.1941 28.8704C23.327 27.1919 22.4163 25.5306 21.4316 23.9C20.87 22.9703 20.2937 22.0465 19.6677 21.1467C19.5214 20.9365 19.5083 20.935 19.356 21.1601C19.0121 21.6665 18.6847 22.1819 18.3713 22.7025C17.3935 24.3249 16.401 25.9398 15.4285 27.5644C15.1212 28.0768 14.7947 28.5817 14.4708 29.0858C14.1356 29.6064 13.6515 29.9654 12.9167 29.9968C12.7156 29.9968 12.5136 29.9968 12.3125 29.9968C10.9438 29.8727 10.3118 28.4784 10.9125 27.5532C11.6708 26.3863 12.4213 25.215 13.1779 24.0481C13.9946 22.7885 14.7877 21.5169 15.6018 20.2558C15.8621 19.8519 16.1137 19.4442 16.3758 19.0411C16.4698 18.8967 16.502 18.7606 16.3749 18.6125C15.937 18.1024 15.8386 17.5062 15.7855 16.8951C15.674 15.622 15.5312 14.3512 15.4033 13.049C15.2883 13.1275 15.2326 13.2158 15.1664 13.295C14.2688 14.3684 13.4966 15.5031 12.8984 16.7231C12.7043 17.1188 12.4022 17.4307 11.9015 17.5638C11.7039 17.6162 11.5942 17.7456 11.4967 17.8907C9.70404 20.5558 7.9558 23.2418 6.1823 25.9151C5.78354 26.5165 5.39001 27.1208 4.98952 27.7215C4.89114 27.8688 4.88069 27.993 4.96166 28.1531C5.28554 28.7926 5.14014 29.2982 4.54723 29.7635C4.34176 29.9243 4.09711 29.9572 3.84724 29.9983C3.64525 29.9983 3.44413 29.9983 3.24214 29.9983Z" fill="white"/>
<path d="M21.8415 3.3106C21.8441 5.13719 20.1037 6.63316 17.982 6.62867C15.8663 6.62344 14.1511 5.1499 14.1407 3.32781C14.1294 1.49449 15.8489 0.00449808 17.9785 1.01525e-05C20.1081 -0.00447777 21.8389 1.47953 21.8415 3.3106Z" fill="white"/>
</svg>
