<svg width="38" height="38" viewBox="0 0 38 38" fill="none" xmlns="http://www.w3.org/2000/svg">
<path d="M11.9984 6.4626L9.73427 4.19844C5.93427 7.09594 3.4326 11.5609 3.21094 16.6276H6.3776C6.48976 14.6196 7.05341 12.6628 8.0266 10.9029C8.99978 9.14293 10.3574 7.62517 11.9984 6.4626ZM31.6159 16.6276H34.7826C34.5451 11.5609 32.0434 7.09594 28.2593 4.19844L26.0109 6.4626C27.6449 7.63089 28.9965 9.15033 29.9664 10.9093C30.9364 12.6683 31.5 14.6223 31.6159 16.6276ZM28.4968 17.4193C28.4968 12.5584 25.9001 8.48927 21.3718 7.4126V6.33594C21.3718 5.02177 20.3109 3.96094 18.9968 3.96094C17.6826 3.96094 16.6218 5.02177 16.6218 6.33594V7.4126C12.0776 8.48927 9.49677 12.5426 9.49677 17.4193V25.3359L6.3301 28.5026V30.0859H31.6634V28.5026L28.4968 25.3359V17.4193ZM18.9968 34.8359C19.2184 34.8359 19.4243 34.8201 19.6301 34.7726C20.6593 34.5509 21.4984 33.8543 21.9101 32.9043C22.0684 32.5243 22.1476 32.1126 22.1476 31.6693H15.8143C15.8301 33.4109 17.2393 34.8359 18.9968 34.8359Z" fill="white"/>
</svg>
